<svg xmlns="http://www.w3.org/2000/svg" width="156.283" height="99.263" viewBox="0 0 156.283 99.263">
  <g id="Group_507" data-name="Group 507" transform="translate(-464.857 -188.105)">
    <path id="Subtraction_1" data-name="Subtraction 1" d="M55.694,72.125h0l-3.126-2.183L49.86,72.124l-2.5-1.871-3.833,1.871L45.36,52.539l-.006,0A118.318,118.318,0,0,1,33.97,58.71a83.978,83.978,0,0,1-10.631,4.242,36.763,36.763,0,0,1-10.714,1.929,14.828,14.828,0,0,1-5.611-.973,9.708,9.708,0,0,1-2.3-1.319,9.163,9.163,0,0,1-1.863-1.965,9.472,9.472,0,0,1-1.6-3.775,10.578,10.578,0,0,1,.057-3.871,19.755,19.755,0,0,1,3.3-7.29A39.183,39.183,0,0,1,9.2,40.231c1.335-1.336,2.31-2.139,2.319-2.147h0l-.006,0c-.138-.088-.876-.564-1.891-1.345a34.71,34.71,0,0,1-4.12-3.73A23.359,23.359,0,0,1,1.52,27.369,13.8,13.8,0,0,1,.031,20.3a13.136,13.136,0,0,1,1.325-4.811,19.688,19.688,0,0,1,3.667-5.059,37.134,37.134,0,0,1,6.544-5.2A73.274,73.274,0,0,1,21.523,0l-.9,4.4,4.271,1.326-.6,4.323,4.738,2.7a34.4,34.4,0,0,0-6.268,2.068,23.773,23.773,0,0,0-5,2.917A12.419,12.419,0,0,0,14.015,22.2a9.189,9.189,0,0,0-.83,4.582,14.118,14.118,0,0,0,1.837,5.708v0a8.733,8.733,0,0,1,1.75-2.33,13.309,13.309,0,0,1,2.61-2,17.285,17.285,0,0,1,4.141-1.734,14.594,14.594,0,0,1,3.9-.584,7.879,7.879,0,0,1,4.8,1.432,6.712,6.712,0,0,1,1.6,1.7,8.254,8.254,0,0,1,1.029,2.272,6.573,6.573,0,0,1,.133,3.063,7.947,7.947,0,0,1-1.2,2.9,9.494,9.494,0,0,1-2.289,2.407,10.165,10.165,0,0,1-3.149,1.577,14.8,14.8,0,0,1-4.241.583,19.211,19.211,0,0,1-5.26-.74,14.445,14.445,0,0,0-1.747,2.176A9.854,9.854,0,0,0,16.016,45.4a5.128,5.128,0,0,0-.272,2.437A4.8,4.8,0,0,0,18.69,51.3a9.08,9.08,0,0,0,4.063.813,24,24,0,0,0,6.4-1.031,48.2,48.2,0,0,0,6.738-2.511,54.607,54.607,0,0,0,5.9-3.12,23.632,23.632,0,0,0,3.9-2.855l2.334-38.7h0a36.137,36.137,0,0,1,4.058.575c1.417.275,2.822.619,4.176,1.024a37.767,37.767,0,0,1,4.8,1.786,24.918,24.918,0,0,1,9.085,6.674,18.769,18.769,0,0,1,3.078,5.3,20.987,20.987,0,0,1,1.3,6.873,23.769,23.769,0,0,1-.623,6.253,19.5,19.5,0,0,1-1.953,4.976A20.379,20.379,0,0,1,65.8,44.01a25.41,25.41,0,0,1-3.33,1.965,27.439,27.439,0,0,1-2.918,1.234,20.985,20.985,0,0,1-2.857.823l-1,24.093Zm2.334-55.648-1,22.383A12.541,12.541,0,0,0,60.9,36.724a12.378,12.378,0,0,0,2.875-3.24,12.806,12.806,0,0,0,1.751-5.193,10.243,10.243,0,0,0-.75-5.387,11.372,11.372,0,0,0-2.625-3.667,14.724,14.724,0,0,0-4.126-2.759ZM27.057,31.591h0a3.064,3.064,0,0,0-1.429.456,9.288,9.288,0,0,0-1.418,1,16.385,16.385,0,0,0-1.519,1.459,9.094,9.094,0,0,0,3.5.814,3.886,3.886,0,0,0,1.312-.2,1.693,1.693,0,0,0,.857-.62,2,2,0,0,0,0-1.913,1.364,1.364,0,0,0-1.3-1Z" transform="translate(523.51 215.243)" fill="#fff"/>
    <path id="Subtraction_2" data-name="Subtraction 2" d="M25.671,87.451,14.086,25.661C11.974,26.505,5.7,31.645,5.64,31.7L6,28.063,3.291,27.48l1.584-3.148L1.5,23.595l1.458-2.953L0,19.473c3.188-4.821,8.919-9.7,15.722-13.382A54.263,54.263,0,0,1,26.386,1.676,39.539,39.539,0,0,1,37.358,0,24.138,24.138,0,0,1,48.65,2.551a20.474,20.474,0,0,1,8.508,8.535A29.315,29.315,0,0,1,59.414,16.3a23.633,23.633,0,0,1,1.01,4.933,21.625,21.625,0,0,1-.069,4.636,22.5,22.5,0,0,1-.984,4.327,29.918,29.918,0,0,1-5.832,9.922,49.822,49.822,0,0,1-8.03,7.391A66.3,66.3,0,0,1,38.4,52.126c-1.854,1.04-3.051,1.587-3.063,1.593L42.84,81.7l-3.946-1.743-1.585,3.976L33.948,81.6l-1.9,4.08L28.53,83.712,25.671,87.45h0ZM38.806,15.09a17.375,17.375,0,0,0-4.678.729,31.341,31.341,0,0,0-4.315,1.6,38.2,38.2,0,0,0-4.4,2.332l6.752,24.793A39.573,39.573,0,0,0,37,40.747a43.219,43.219,0,0,0,5.584-6.089,22.863,22.863,0,0,0,3.834-7.4,12.761,12.761,0,0,0,.479-3.887,10.449,10.449,0,0,0-.9-3.849C44.7,16.581,42.274,15.09,38.806,15.09Z" transform="translate(464.857 188.105)" fill="#fff"/>
    <g id="Group_102" data-name="Group 102" transform="translate(584.646 199.316)">
      <path id="Path_61" data-name="Path 61" d="M860.855,244.009l-4.721,12.159,1.949.728,6.393-10.449Z" transform="translate(-850.486 -237.298)" fill="#fff"/>
      <path id="Path_62" data-name="Path 62" d="M879.257,227.793a2.892,2.892,0,0,0-3.881.036,2.447,2.447,0,0,0,.429,3.6,2.9,2.9,0,0,0,3.884-.035A2.451,2.451,0,0,0,879.257,227.793Z" transform="translate(-863.147 -225.786)" fill="#fff"/>
      <path id="Path_63" data-name="Path 63" d="M883.358,259.234,872.872,269l1,1.373,11.484-8.4Z" transform="translate(-861.858 -247.642)" fill="#fff"/>
      <path id="Path_64" data-name="Path 64" d="M916.747,249.569a1.594,1.594,0,0,0-.318,2.331,1.864,1.864,0,0,0,2.44.585,1.6,1.6,0,0,0,.318-2.33A1.864,1.864,0,0,0,916.747,249.569Z" transform="translate(-891.206 -240.911)" fill="#fff"/>
      <path id="Path_65" data-name="Path 65" d="M893.6,302.178l14.66-2.945-.367-1.635-14.464,1.566Z" transform="translate(-875.826 -273.708)" fill="#fff"/>
      <path id="Path_66" data-name="Path 66" d="M945.557,294.414a1.066,1.066,0,0,0-.208,1.557,1.246,1.246,0,0,0,1.63.394,1.065,1.065,0,0,0,.209-1.558A1.247,1.247,0,0,0,945.557,294.414Z" transform="translate(-910.935 -271.435)" fill="#fff"/>
      <path id="Path_67" data-name="Path 67" d="M839.641,223.075l-.281,13.982,1.79.04,1.676-13.488Z" transform="translate(-839.089 -223.075)" fill="#fff"/>
      <path id="Path_68" data-name="Path 68" d="M840.944,273.354a1.23,1.23,0,0,0-1.577-.546,1.1,1.1,0,0,0-.785,1.388,1.231,1.231,0,0,0,1.578.547A1.1,1.1,0,0,0,840.944,273.354Z" transform="translate(-838.516 -256.805)" fill="#fff"/>
    </g>
  </g>
</svg>
