<svg xmlns="http://www.w3.org/2000/svg" width="456.587" height="383.004" viewBox="0 0 456.587 383.004">
  <g id="Group_614" data-name="Group 614" transform="translate(-222.898 -3283.996)">
    <text id="PEP_PLANNING" data-name="PEP PLANNING" transform="translate(238 3658)" font-size="43" font-family="VDL-LogoMaru-Regular, VDL-LogoMaru" letter-spacing="0.03em"><tspan x="0" y="0">PEP PLANNING</tspan></text>
    <g id="Group_530" data-name="Group 530" transform="translate(-241.96 3095.891)">
      <path id="Subtraction_3" data-name="Subtraction 3" d="M162.713,210.716h0l-9.132-6.378-7.911,6.378-7.306-5.467-11.2,5.467,5.357-57.218-.019.014a345.684,345.684,0,0,1-33.258,18.014,245.348,245.348,0,0,1-31.058,12.394c-11.926,3.738-22.458,5.634-31.3,5.635a43.319,43.319,0,0,1-16.393-2.844,28.361,28.361,0,0,1-6.709-3.854,26.769,26.769,0,0,1-5.442-5.741,27.673,27.673,0,0,1-4.669-11.029,30.9,30.9,0,0,1,.166-11.308c1.269-6.646,4.514-13.812,9.644-21.3a114.474,114.474,0,0,1,13.4-15.942c3.9-3.9,6.748-6.25,6.776-6.273h0l-.018-.01c-.4-.256-2.559-1.647-5.526-3.93a101.4,101.4,0,0,1-12.038-10.9A68.243,68.243,0,0,1,4.44,79.96,40.33,40.33,0,0,1,.09,59.313,38.376,38.376,0,0,1,3.961,45.257,57.521,57.521,0,0,1,14.674,30.476,108.487,108.487,0,0,1,33.792,15.286,214.076,214.076,0,0,1,62.881,0L60.243,12.845,72.721,16.72,70.955,29.348,84.8,37.24a100.506,100.506,0,0,0-18.311,6.041A69.456,69.456,0,0,0,51.863,51.8a36.283,36.283,0,0,0-10.916,13.05,26.846,26.846,0,0,0-2.424,13.385A41.245,41.245,0,0,0,43.89,94.915v-.006A25.516,25.516,0,0,1,49,88.1a38.882,38.882,0,0,1,7.624-5.833,50.5,50.5,0,0,1,12.1-5.066,42.636,42.636,0,0,1,11.4-1.707,23.02,23.02,0,0,1,14.031,4.185,19.611,19.611,0,0,1,4.679,4.962,24.115,24.115,0,0,1,3.006,6.637,19.2,19.2,0,0,1,.389,8.948,23.217,23.217,0,0,1-3.492,8.48,27.736,27.736,0,0,1-6.688,7.033,29.7,29.7,0,0,1-9.2,4.607,43.246,43.246,0,0,1-12.391,1.7,56.127,56.127,0,0,1-15.367-2.162,42.2,42.2,0,0,0-5.1,6.359,28.785,28.785,0,0,0-3.2,6.38,14.982,14.982,0,0,0-.794,7.12c.653,4.181,3.548,7.584,8.606,10.114a26.528,26.528,0,0,0,11.87,2.375,70.122,70.122,0,0,0,18.7-3.012,140.809,140.809,0,0,0,19.685-7.337,159.526,159.526,0,0,0,17.247-9.114,69.037,69.037,0,0,0,11.386-8.342l6.818-113.075h.014a105.577,105.577,0,0,1,11.856,1.679c4.141.8,8.246,1.809,12.2,2.991a110.341,110.341,0,0,1,14.035,5.218c11.121,5.056,20.051,11.616,26.541,19.5a54.834,54.834,0,0,1,8.992,15.471,61.313,61.313,0,0,1,3.8,20.079,69.438,69.438,0,0,1-1.821,18.267,56.971,56.971,0,0,1-5.706,14.537,59.537,59.537,0,0,1-17.98,19.478,74.223,74.223,0,0,1-9.729,5.74,80.174,80.174,0,0,1-8.524,3.606,61.319,61.319,0,0,1-8.347,2.406l-2.925,70.388Zm6.819-162.577-2.923,65.394a36.639,36.639,0,0,0,11.321-6.243,36.163,36.163,0,0,0,8.4-9.466,37.416,37.416,0,0,0,5.115-15.172,29.924,29.924,0,0,0-2.19-15.739,33.225,33.225,0,0,0-7.67-10.714,43.016,43.016,0,0,0-12.053-8.06ZM79.047,92.294h0a8.952,8.952,0,0,0-4.175,1.333,27.135,27.135,0,0,0-4.142,2.931,47.872,47.872,0,0,0-4.437,4.263A26.567,26.567,0,0,0,76.51,103.2a11.354,11.354,0,0,0,3.832-.58,4.946,4.946,0,0,0,2.5-1.81c.933-1.378.934-3.259,0-5.59-.775-1.94-2.054-2.923-3.8-2.923Z" transform="translate(636.215 267.389)" fill="#34b6e5"/>
      <path id="Subtraction_4" data-name="Subtraction 4" d="M75,255.49,41.153,74.971C34.983,77.436,16.66,92.451,16.476,92.6l1.053-10.616-7.914-1.7,4.628-9.2L4.38,68.932l4.26-8.627L0,56.89C9.315,42.807,26.057,28.558,45.933,17.8A158.532,158.532,0,0,1,77.088,4.9,115.516,115.516,0,0,1,109.142,0c12.433,0,23.533,2.508,32.992,7.453,10.413,5.444,18.776,13.833,24.858,24.935a85.646,85.646,0,0,1,6.588,15.238,69.047,69.047,0,0,1,2.952,14.411,63.181,63.181,0,0,1-.2,13.545,65.719,65.719,0,0,1-2.874,12.642c-3.281,9.868-9.013,19.621-17.038,28.989a145.555,145.555,0,0,1-23.461,21.593,193.694,193.694,0,0,1-20.765,13.481c-5.417,3.039-8.913,4.637-8.948,4.653l21.915,81.748L113.63,233.6,109,245.211,99.181,238.4l-5.563,11.92-10.266-5.752L75,255.489v0Zm38.377-211.4a50.764,50.764,0,0,0-13.666,2.129A91.559,91.559,0,0,0,87.1,50.9a111.6,111.6,0,0,0-12.84,6.813l19.725,72.434a115.62,115.62,0,0,0,14.121-11.1,126.267,126.267,0,0,0,16.313-17.788c5.541-7.467,9.309-14.741,11.2-21.62a37.283,37.283,0,0,0,1.4-11.356,30.526,30.526,0,0,0-2.617-11.245C130.581,48.443,123.5,44.087,113.374,44.087Z" transform="translate(464.857 188.105)" fill="#34b6e5"/>
      <path id="Path_668" data-name="Path 668" d="M732.268,393.435c-13.637,4.083-27.758-.456-27.758-.456s-20.454,19.98-.488,29.972a20.958,20.958,0,0,0,5.033,1.69c-11.484-10.516,5.194-26.817,5.194-26.817s14.12,4.54,27.758.455,22.4-17.259,18.995-29.066c-2.34-8.092-7.825-13.513-15.945-15.213a21.992,21.992,0,0,1,6.2,10.369C754.67,376.176,745.9,389.345,732.268,393.435Zm-4.229-17.3a35.455,35.455,0,0,1,4.857-3.885,7.528,7.528,0,0,0-.628-3.941c-3.589-8.984-16.557,5.6-16.557,5.6C720.008,375.8,724.651,376.655,728.039,376.131Zm-29.594-14.962c-8.112-35.177,45.511-46,45.511-46l-13.838-7.89,1.764-12.631-9.984-3.1-1.522,10.882,13.841,7.893S668.961,323.5,693.31,368A24.887,24.887,0,0,1,698.444,361.169Zm130.195-33.962a42.013,42.013,0,0,0-9.688-5.983l-2.923,65.4a36.1,36.1,0,0,0,10.2-5.382ZM795.087,483.8l-7.306-5.47-.517.252-.94,10.064,11.192-5.47,7.308,5.47,6.614-5.33L803,477.425ZM876.9,354.226c-.844-31.184-21.576-47.483-41.374-55.955,16.333,9.389,30.932,25.051,31.638,51.11,1.456,54.041-52.107,64.033-52.107,64.033l-2.881,69.307.56-.451,9.137,6.379,2.92-70.386S878.363,408.267,876.9,354.226ZM722.039,277.932c-4.216,1.856-8.165,3.716-11.88,5.579l-.5,2.42,10.09,3.134ZM673.115,460.908c25.52,19.569,83.664-9.517,107.775-23.111l1.051-11.215S710.438,471.921,673.115,460.908Z" transform="translate(-13.205 -5.696)" fill="#002c83"/>
      <path id="Path_669" data-name="Path 669" d="M567.537,313.81l-17.017-62.5s26.371-16.945,45.132-13.04c-17.376-15.9-54.873,8.194-54.873,8.194L560.5,318.9C562.439,317.656,564.853,315.932,567.537,313.81ZM548.605,434.974l2.645,14.113,8.034-10.491-9.416-5.275ZM491.014,274.99l2.77.595L492.732,286.2s9.156-7.514,16.746-12.827l-1.81-9.649C504.161,265.125,496.789,270.53,491.014,274.99Zm69.346,163.6,9.514,5.33,4.89-10.477-9.067-6.29Zm82.887-212.6c-7.65-13.965-18.428-22.813-30.913-27.67a60.353,60.353,0,0,1,21.174,22.826c41.854,76.406-63.748,124.553-63.748,124.553l21.914,81.746-11.528-5.09-4.032,10.117,9.141,6.343,4.626-11.617,11.528,5.092L579.494,350.54S685.1,302.394,643.247,225.986Z" transform="translate(-1.659 -0.647)" fill="#002c83"/>
      <g id="Group_528" data-name="Group 528" transform="translate(814.824 220.858)">
        <path id="Path_670" data-name="Path 670" d="M869.927,244.009l-13.793,35.524,5.693,2.126L880.5,251.132Z" transform="translate(-839.633 -224.403)" fill="#ffd100"/>
        <path id="Path_671" data-name="Path 671" d="M887.881,229.191c-3.477-2.875-8.556-2.828-11.338.106s-2.224,7.636,1.254,10.508,8.558,2.83,11.347-.1S891.364,232.067,887.881,229.191Z" transform="translate(-840.815 -223.328)" fill="#ffd100"/>
        <path id="Path_672" data-name="Path 672" d="M903.507,259.234l-30.635,28.532,2.915,4.012,33.551-24.528Z" transform="translate(-840.695 -225.368)" fill="#ffd100"/>
        <path id="Path_673" data-name="Path 673" d="M918.052,250.032c-2.228,1.409-2.64,4.455-.928,6.811a5.445,5.445,0,0,0,7.129,1.708c2.226-1.411,2.639-4.459.93-6.808A5.448,5.448,0,0,0,918.052,250.032Z" transform="translate(-843.434 -224.74)" fill="#ffd100"/>
        <path id="Path_674" data-name="Path 674" d="M893.931,310.977l42.83-8.6-1.073-4.775-42.257,4.575Z" transform="translate(-841.998 -227.801)" fill="#ffd100"/>
        <path id="Path_675" data-name="Path 675" d="M946.423,294.722a3.114,3.114,0,0,0-.609,4.549,3.64,3.64,0,0,0,4.762,1.152,3.112,3.112,0,0,0,.61-4.552A3.643,3.643,0,0,0,946.423,294.722Z" transform="translate(-845.275 -227.588)" fill="#ffd100"/>
        <path id="Path_676" data-name="Path 676" d="M840.182,223.075l-.822,40.85,5.231.117,4.9-39.406Z" transform="translate(-838.57 -223.075)" fill="#ffd100"/>
        <path id="Path_677" data-name="Path 677" d="M845.608,274.573c-.644-1.562-2.706-2.274-4.606-1.6s-2.936,2.5-2.295,4.055,2.708,2.28,4.612,1.6S846.247,276.136,845.608,274.573Z" transform="translate(-838.516 -226.223)" fill="#ffd100"/>
      </g>
    </g>
  </g>
</svg>
