<svg xmlns="http://www.w3.org/2000/svg" width="656.466" height="251.534" viewBox="0 0 656.466 251.534">
  <g id="Group_614" data-name="Group 614" transform="translate(-435.534 -301.466)">
    <text id="PEP_PLANNING" data-name="PEP PLANNING" transform="translate(714 492)" font-size="43" font-family="VDL-LogoMaru-Regular, VDL-LogoMaru" letter-spacing="0.03em"><tspan x="0" y="0">PEP PLANNING</tspan></text>
    <text id="新時代のコミュニケーションをクリエイトします" transform="translate(769 545)" font-size="28" font-family="NotoSerifJP-Medium, Noto Serif JP" font-weight="500" letter-spacing="0.03em"><tspan x="-315.7" y="0">新時代のコミュニケーションをクリエイトします</tspan></text>
    <rect id="Rectangle_7537" data-name="Rectangle 7537" width="646" height="2" transform="translate(446 507)"/>
    <g id="Group_529" data-name="Group 529" transform="translate(-29.323 113.361)">
      <path id="Subtraction_3" data-name="Subtraction 3" d="M107.249,138.889h0l-6.019-4.2-5.214,4.2-4.815-3.6-7.381,3.6,3.531-37.714-.012.009a227.854,227.854,0,0,1-21.922,11.874,161.717,161.717,0,0,1-20.471,8.169c-7.861,2.464-14.8,3.714-20.632,3.714a28.553,28.553,0,0,1-10.805-1.874,18.694,18.694,0,0,1-4.422-2.54A17.644,17.644,0,0,1,5.5,116.741a18.24,18.24,0,0,1-3.077-7.27,20.37,20.37,0,0,1,.11-7.454A38.042,38.042,0,0,1,8.886,87.98a75.453,75.453,0,0,1,8.835-10.508c2.571-2.572,4.448-4.119,4.466-4.135h0l-.012-.007c-.265-.169-1.686-1.085-3.642-2.591A66.836,66.836,0,0,1,10.6,63.558,44.981,44.981,0,0,1,2.927,52.7,26.583,26.583,0,0,1,.06,39.1,25.3,25.3,0,0,1,2.611,29.83a37.914,37.914,0,0,1,7.061-9.742,71.507,71.507,0,0,1,12.6-10.013A141.1,141.1,0,0,1,41.447,0L39.708,8.466l8.225,2.554-1.164,8.324,9.123,5.2a66.246,66.246,0,0,0-12.07,3.982,45.78,45.78,0,0,0-9.638,5.617,23.915,23.915,0,0,0-7.2,8.6,17.7,17.7,0,0,0-1.6,8.823,27.186,27.186,0,0,0,3.538,10.992v0A16.819,16.819,0,0,1,32.3,58.071a25.628,25.628,0,0,1,5.025-3.845A33.284,33.284,0,0,1,45.3,50.888a28.1,28.1,0,0,1,7.513-1.125,15.173,15.173,0,0,1,9.248,2.758,12.926,12.926,0,0,1,3.084,3.271,15.9,15.9,0,0,1,1.981,4.375,12.657,12.657,0,0,1,.256,5.9,15.3,15.3,0,0,1-2.3,5.589,18.282,18.282,0,0,1-4.409,4.635,19.575,19.575,0,0,1-6.064,3.037,28.5,28.5,0,0,1-8.167,1.123,37,37,0,0,1-10.129-1.425,27.812,27.812,0,0,0-3.364,4.191,18.973,18.973,0,0,0-2.106,4.205,9.875,9.875,0,0,0-.523,4.693c.43,2.756,2.339,5,5.672,6.667a17.485,17.485,0,0,0,7.824,1.565,46.22,46.22,0,0,0,12.327-1.985,92.812,92.812,0,0,0,12.975-4.836,105.148,105.148,0,0,0,11.368-6.007,45.5,45.5,0,0,0,7.5-5.5L92.483,7.486h.009a69.589,69.589,0,0,1,7.814,1.106c2.729.529,5.435,1.193,8.042,1.971A72.73,72.73,0,0,1,117.6,14a47.985,47.985,0,0,1,17.494,12.853,36.143,36.143,0,0,1,5.927,10.2,40.413,40.413,0,0,1,2.5,13.235,45.769,45.769,0,0,1-1.2,12.04,37.552,37.552,0,0,1-3.761,9.582A39.243,39.243,0,0,1,126.71,84.748a48.922,48.922,0,0,1-6.413,3.783,52.844,52.844,0,0,1-5.619,2.377,40.417,40.417,0,0,1-5.5,1.586l-1.928,46.395ZM111.743,31.73l-1.927,43.1a24.15,24.15,0,0,0,7.462-4.115,23.836,23.836,0,0,0,5.537-6.239,24.662,24.662,0,0,0,3.371-10A19.724,19.724,0,0,0,124.743,44.1a21.9,21.9,0,0,0-5.055-7.062,28.353,28.353,0,0,0-7.945-5.312ZM52.1,60.834h0a5.9,5.9,0,0,0-2.752.878,17.886,17.886,0,0,0-2.73,1.932,31.554,31.554,0,0,0-2.924,2.81,17.511,17.511,0,0,0,6.735,1.567,7.484,7.484,0,0,0,2.526-.382,3.26,3.26,0,0,0,1.651-1.193c.615-.908.616-2.148,0-3.684A2.627,2.627,0,0,0,52.1,60.834Z" transform="translate(577.804 240.364)" fill="#34b6e5"/>
      <path id="Subtraction_4" data-name="Subtraction 4" d="M49.433,168.4,27.125,49.416C23.058,51.04,10.981,60.937,10.86,61.037l.694-7L6.337,52.918l3.05-6.061-6.5-1.422,2.808-5.686L0,37.5c6.14-9.283,17.175-18.675,30.276-25.769a104.493,104.493,0,0,1,20.535-8.5A76.14,76.14,0,0,1,71.939,0,46.482,46.482,0,0,1,93.685,4.912a39.425,39.425,0,0,1,16.384,16.435,56.452,56.452,0,0,1,4.342,10.044,45.511,45.511,0,0,1,1.946,9.5,41.644,41.644,0,0,1-.133,8.928,43.317,43.317,0,0,1-1.894,8.333A57.613,57.613,0,0,1,103.1,77.258,95.939,95.939,0,0,1,87.635,91.491a127.67,127.67,0,0,1-13.687,8.886c-3.57,2-5.875,3.056-5.9,3.067L82.5,157.326l-7.6-3.356-3.051,7.656-6.472-4.489-3.666,7.857L54.94,161.2l-5.506,7.2h0Zm25.3-139.342a33.46,33.46,0,0,0-9.007,1.4,60.349,60.349,0,0,0-8.308,3.087,73.561,73.561,0,0,0-8.463,4.49l13,47.744a76.21,76.21,0,0,0,9.308-7.319A83.226,83.226,0,0,0,82.011,66.74a44.026,44.026,0,0,0,7.383-14.251A24.575,24.575,0,0,0,90.317,45a20.12,20.12,0,0,0-1.725-7.412C86.07,31.93,81.406,29.059,74.728,29.059Z" transform="translate(464.857 188.105)" fill="#34b6e5"/>
      <path id="Path_668" data-name="Path 668" d="M712.1,354.063c-8.988,2.692-18.3-.3-18.3-.3s-13.482,13.17-.322,19.755a13.815,13.815,0,0,0,3.318,1.114c-7.569-6.931,3.424-17.676,3.424-17.676s9.307,2.992,18.3.3,14.765-11.376,12.52-19.158c-1.542-5.334-5.158-8.907-10.51-10.027a14.5,14.5,0,0,1,4.087,6.835C726.87,342.688,721.093,351.368,712.1,354.063Zm-2.788-11.405a23.37,23.37,0,0,1,3.2-2.561,4.962,4.962,0,0,0-.414-2.6c-2.366-5.922-10.913,3.692-10.913,3.692A15.708,15.708,0,0,0,709.317,342.658ZM689.81,332.8c-5.347-23.186,30-30.32,30-30.32l-9.121-5.2,1.162-8.325-6.581-2.041-1,7.173,9.123,5.2s-43.011,8.68-26.962,38.017A16.405,16.405,0,0,1,689.81,332.8Zm85.815-22.385a27.693,27.693,0,0,0-6.386-3.944l-1.927,43.1a23.794,23.794,0,0,0,6.72-3.547ZM753.511,413.628l-4.815-3.605-.341.166-.62,6.633,7.377-3.605,4.817,3.605,4.36-3.513-5.563-3.884Zm53.926-85.408c-.556-20.554-14.222-31.3-27.271-36.882,10.766,6.189,20.388,16.512,20.854,33.688.96,35.62-34.346,42.206-34.346,42.206l-1.9,45.682.369-.3,6.023,4.2,1.925-46.393S808.4,363.84,807.436,328.22ZM705.362,277.932c-2.779,1.224-5.382,2.449-7.83,3.678l-.327,1.6,6.651,2.066Zm-32.247,120.6c16.821,12.9,55.145-6.273,71.038-15.233l.693-7.392S697.716,405.8,673.115,398.537Z" transform="translate(-79.693 -34.373)" fill="#002c83"/>
      <path id="Path_669" data-name="Path 669" d="M541.453,274.442l-11.216-41.195s17.382-11.169,29.748-8.6c-11.453-10.478-36.169,5.4-36.169,5.4l13,47.744C538.093,276.976,539.684,275.841,541.453,274.442ZM528.974,354.3l1.743,9.3,5.3-6.915-6.206-3.477Zm-37.96-105.45,1.826.392-.694,7s6.035-4.953,11.038-8.454l-1.193-6.36C499.68,242.352,494.82,245.915,491.014,248.854Zm45.708,107.834,6.271,3.513,3.223-6.906-5.977-4.146Zm54.633-140.134a38.945,38.945,0,0,0-20.376-18.238,39.781,39.781,0,0,1,13.956,15.045c27.588,50.362-42.018,82.1-42.018,82.1l14.445,53.881-7.6-3.355-2.658,6.669,6.025,4.181,3.049-7.657,7.6,3.356-14.444-53.88S618.944,266.917,591.355,216.554Z" transform="translate(-10.009 -3.907)" fill="#002c83"/>
      <g id="Group_528" data-name="Group 528" transform="translate(695.531 209.693)">
        <path id="Path_670" data-name="Path 670" d="M865.225,244.009l-9.091,23.415,3.753,1.4L872.2,248.7Z" transform="translate(-845.258 -231.086)" fill="#ffd100"/>
        <path id="Path_671" data-name="Path 671" d="M883.412,228.466c-2.292-1.9-5.639-1.864-7.473.07s-1.466,5.033.827,6.926,5.641,1.866,7.479-.067S885.707,230.362,883.412,228.466Z" transform="translate(-852.389 -224.602)" fill="#ffd100"/>
        <path id="Path_672" data-name="Path 672" d="M893.064,259.234l-20.192,18.806,1.921,2.644,22.114-16.167Z" transform="translate(-851.663 -236.912)" fill="#ffd100"/>
        <path id="Path_673" data-name="Path 673" d="M917.375,249.792a3.07,3.07,0,0,0-.612,4.489,3.589,3.589,0,0,0,4.7,1.126,3.071,3.071,0,0,0,.613-4.487A3.591,3.591,0,0,0,917.375,249.792Z" transform="translate(-868.192 -233.121)" fill="#ffd100"/>
        <path id="Path_674" data-name="Path 674" d="M893.76,306.417l28.23-5.671-.707-3.148-27.853,3.016Z" transform="translate(-859.53 -251.593)" fill="#ffd100"/>
        <path id="Path_675" data-name="Path 675" d="M945.974,294.563a2.052,2.052,0,0,0-.4,3,2.4,2.4,0,0,0,3.139.759,2.051,2.051,0,0,0,.4-3A2.4,2.4,0,0,0,945.974,294.563Z" transform="translate(-879.304 -250.313)" fill="#ffd100"/>
        <path id="Path_676" data-name="Path 676" d="M839.9,223.075,839.359,250l3.448.077,3.228-25.974Z" transform="translate(-838.839 -223.075)" fill="#ffd100"/>
        <path id="Path_677" data-name="Path 677" d="M843.191,273.941a2.37,2.37,0,0,0-3.036-1.051,2.121,2.121,0,0,0-1.512,2.672,2.37,2.37,0,0,0,3.04,1.053A2.119,2.119,0,0,0,843.191,273.941Z" transform="translate(-838.516 -242.073)" fill="#ffd100"/>
      </g>
    </g>
  </g>
</svg>
